<svg height="500" width="500" xmlns="http://www.w3.org/2000/svg" xmlns:xlink="http://www.w3.org/1999/xlink"><linearGradient id="a" gradientUnits="userSpaceOnUse" x1="121.69311" x2="371.69311" y1="252.645486" y2="252.645486"><stop offset="0" stop-color="#fff" stop-opacity="0"/><stop offset=".5" stop-color="#fff"/><stop offset="1" stop-color="#fff" stop-opacity="0"/></linearGradient><filter id="b"><feGaussianBlur stdDeviation="12.31706"/></filter><path d="m249.02108 174.98869c-40.96234.51944-74.04176 33.92736-74.0417 75.01214-.00006 41.40829 33.60387 75.01214 75.01228 75.01214 41.40836 0 75.02866-33.60384 75.02871-75.01214 0-41.40829-33.6204-75.01214-75.02871-75.01214-.32353 0-.64805-.00409-.97058 0zm.7567 41.15797c.07291-.00046.14087 0 .21388 0 18.68548 0 33.85423 15.16872 33.85423 33.85417s-15.16875 33.85416-33.85423 33.85416c-18.68553-.00001-33.83781-15.16872-33.83781-33.85416 0-18.61245 15.03899-33.73633 33.62393-33.85417z" style="fill:#c8c8c8;fill-opacity:.25098;fill-rule:evenodd;stroke:#000;stroke-width:.263201;stroke-linecap:square;stroke-opacity:.501961"/><path d="m296.88455 249.99984c0 25.89344-20.99093 46.88423-46.88457 46.88423-25.89363 0-46.88457-20.99079-46.88457-46.88423 0-25.89345 20.99094-46.88423 46.88457-46.88423 25.89364 0 46.88457 20.99078 46.88457 46.88423z" fill="none" stroke="#000" stroke-linecap="square" stroke-opacity=".501961" stroke-width=".263201"/><g fill-rule="evenodd"><path d="m248.37955.00133592c-137.25532.87026193-248.37952695 112.53242408-248.37952695 249.99112408 0 137.99774 111.99366695 250.00754 249.99163695 250.00754 137.99802 0 250.00805-112.0098 250.00805-250.00754 0-137.99775-112.01003-249.99112408-250.00805-249.99112408-.53904 0-1.07386-.00341108-1.61211 0zm.72381 180.60489408c.29836-.00379.58904 0 .8883 0 38.30533 0 69.40284 31.08095 69.40284 69.38623 0 38.30527-31.09751 69.40268-69.40284 69.40268-38.30538-.00001-69.38636-31.09741-69.38636-69.40268 0-38.00602 30.60527-68.90572 68.49806-69.38623z" fill="#808080" fill-opacity=".392157"/><path d="m84.210315 430.38311c99.036745 91.02448 253.318715 85.13932 345.103265-13.46224 92.14443-98.98815 86.58937-254.12565-12.39904-346.270296-98.98837-92.144631-254.11382-86.578665-346.258266 12.409522-92.144431 98.988164-86.590243 254.102404 12.398129 346.247024.38669.35997.767552.71906 1.155912 1.07599zm115.020155-125.15636c-.1189-.1093-.24282-.22605-.36124-.33626-30.30904-28.21359-32.00965-75.70624-3.7961-106.01535 28.21361-30.30905 75.71746-32.02158 106.02656-3.80796 30.30919 28.2137 31.99853 75.71837 3.78491 106.02741-28.10333 30.1907-75.3302 32.00283-105.65413 4.13216z" fill="#808080"/><path d="m249.39946 156.2268c-51.48185.32642-93.1731 42.2235-93.17315 93.78163 0 51.76033 42.00493 93.76519 93.76535 93.76518 51.76042 0 93.78178-42.00484 93.78183-93.76518 0-51.76033-42.02135-93.78162-93.78183-93.78163-.20219 0-.39033-.00128-.5922 0zm.11517 18.75304c.1615-.00103.31527 0 .47703 0 41.40836 0 75.02876 33.6203 75.02876 75.02859-.00005 41.40829-33.6204 75.01214-75.02876 75.01214-41.40836.00002-75.01228-33.60385-75.01228-75.01214 0-41.24655 33.34972-74.76746 74.53525-75.02859z" fill="#191919"/><path d="m249.39946 156.2268c-51.48185.32642-93.1731 42.2235-93.17315 93.78163 0 51.76033 42.00493 93.76519 93.76535 93.76518 51.76042 0 93.78178-42.00484 93.78183-93.76518 0-51.76033-42.02135-93.78162-93.78183-93.78163-.20219 0-.39033-.00128-.5922 0zm.11517 18.75304c.1615-.00103.31527 0 .47703 0 41.40836 0 75.02876 33.6203 75.02876 75.02859-.00005 41.40829-33.6204 75.01214-75.02876 75.01214-41.40836.00002-75.01228-33.60385-75.01228-75.01214 0-41.24655 33.34972-74.76746 74.53525-75.02859z" fill="#191919" fill-opacity=".686275"/><path d="m121.69311 2.6454854h250v500.0000046h-250z" fill="url(#a)" filter="url(#b)" opacity=".8" transform="matrix(1.5103971 -.5635337 .6695336 1.4664905 -291.59411 18.352606)"/></g></svg>