<svg viewBox="0 0 39.6 40.86" xmlns="http://www.w3.org/2000/svg"><path d="m19.8 0c-10.93 0-19.8 8.31-19.8 18.57a18.12 18.12 0 0 0 7.57 14.59l-.74 7.7 6.9-4.62a20.66 20.66 0 0 0 6.08.9c10.94 0 19.8-8.31 19.8-18.56s-8.87-18.58-19.81-18.58zm12.28 10.85a.16.16 0 0 1 -.09.07c-.67.19-7.81 2.25-8.57 2.79a4 4 0 0 0 -1.24 2.52c-.09.69-.1 4.55-1.08 6a13.61 13.61 0 0 1 -4.74 3.54c-1.23.55-6.49 2.55-7.57 2.79s-1.4.35-1.27-.58l1.34-6.11c0-.08.05-.44.77-.55 0 0 8.44-1.47 9.47-2.75a2.79 2.79 0 0 0 .9-1.97c.05-.42.19-1.74.2-1.81a2.39 2.39 0 0 1 1.72-2.21c1.7-.53 9.52-2.42 10-2.17s.2.35.16.44z" fill="#e4e6eb"/></svg>