<svg viewBox="0 0 31.38 23.49" xmlns="http://www.w3.org/2000/svg"><ellipse cx="10.96" cy="5.71" fill="#23a9fc" rx="5.37" ry="5.71"/><ellipse cx="22.99" cy="6.44" fill="#7fdfd2" rx="4.68" ry="4.78"/><path d="m23.48 12.1a8.53 8.53 0 0 0 -5.95 2 9.07 9.07 0 0 1 4 7.39v.22h8.39a1.47 1.47 0 0 0 1.51-1.44c0-.21 0-.42 0-.63a8.31 8.31 0 0 0 -7.95-7.54z" fill="#7fdfd2"/><path d="m20.51 23.49a1.5 1.5 0 0 0 1.56-1.43c0-5.29-4.94-9.58-11-9.58s-11.07 4.29-11.07 9.58a1.5 1.5 0 0 0 1.56 1.43z" fill="#1a7ef4"/></svg>