<svg viewBox="0 0 31.41 31.41" xmlns="http://www.w3.org/2000/svg" xmlns:xlink="http://www.w3.org/1999/xlink"><linearGradient id="a" gradientUnits="userSpaceOnUse" x1="12.2" x2="19.49" y1="1.03" y2="31.59"><stop offset="0" stop-color="#25b4fe"/><stop offset=".04" stop-color="#21abfb"/><stop offset=".13" stop-color="#1999f5"/><stop offset=".23" stop-color="#148ef1"/><stop offset=".34" stop-color="#128bf0"/><stop offset=".76" stop-color="#046be4"/></linearGradient><circle cx="15.7" cy="15.7" fill="url(#a)" r="15.7"/><g fill="#fff"><ellipse cx="15.9" cy="11.41" rx="3.51" ry="3.76"/><path d="m20.92 22.63a.83.83 0 0 0 .83-.82 5.68 5.68 0 0 0 -5.85-5.51 5.68 5.68 0 0 0 -5.85 5.51.83.83 0 0 0 .83.82z"/><ellipse cx="23.35" cy="12.83" rx="2.48" ry="2.75"/><path d="m23.62 16.08a4.3 4.3 0 0 0 -3.16 1.12 5.35 5.35 0 0 1 2.1 4.25v.13h4.44a.81.81 0 0 0 .8-.83c0-.12 0-.24 0-.36a4.58 4.58 0 0 0 -4.18-4.31z"/><ellipse cx="8.3" cy="13.02" rx="2.47" ry="2.75"/><path d="m8 16.27a4.28 4.28 0 0 1 3.13 1.12 5.39 5.39 0 0 0 -2.08 4.25v.13h-4.38a.82.82 0 0 1 -.8-.83c0-.12 0-.24 0-.36a4.58 4.58 0 0 1 4.13-4.31z"/></g></svg>