<svg xmlns="http://www.w3.org/2000/svg" xmlns:xlink="http://www.w3.org/1999/xlink" viewBox="0 0 32 32"><defs><style>.cls-1{fill:url(#linear-gradient);}</style><linearGradient id="linear-gradient" x1="8.33" y1="1.28" x2="23.12" y2="29.67" gradientUnits="userSpaceOnUse"><stop offset="0" stop-color="#fccf3d"/><stop offset="0.72" stop-color="#f4b01f"/></linearGradient></defs><g id="Layer_2" data-name="Layer 2"><g id="_1" data-name="1"><path class="cls-1" d="M16,0A16,16,0,1,0,32,16,16,16,0,0,0,16,0Zm4.82,23.25a8.92,8.92,0,0,1-2.11,1v3.55H17V24.64a8.36,8.36,0,0,1-2,0v3.18H13.29V24.26a8.62,8.62,0,0,1-4.65-3.63,8.7,8.7,0,0,1,4.65-12.9V4.18H15V7.36a8.36,8.36,0,0,1,2,0V4.18h1.71V7.73a8.67,8.67,0,0,1,4,2.73A2.84,2.84,0,0,1,22.53,14l-3.82,2.54L17,17.7l-.52.34a.87.87,0,0,1-1.32-.47,4,4,0,0,1-.16-1,2,2,0,0,1,0-.35,4.07,4.07,0,0,1,.07-.61,3.9,3.9,0,0,1,1.68-2.5L17,13l1.56-1A4.72,4.72,0,0,0,17,11.3a4.81,4.81,0,0,0-2,0,4.89,4.89,0,0,0-1.65.7l-.06,0a4.8,4.8,0,0,0,0,7.92,4.89,4.89,0,0,0,1.71.73,4.81,4.81,0,0,0,2,0,4.66,4.66,0,0,0,1.48-.58l.23-.15a4.78,4.78,0,0,0,1.77-2.23.64.64,0,0,1,.25-.31l.88-.58.73-.43a5.47,5.47,0,0,1,1.7-.65.66.66,0,0,1,.65.69A8.72,8.72,0,0,1,20.82,23.25Z"/></g></g></svg>