<svg viewBox="0 0 31.38 25.99" xmlns="http://www.w3.org/2000/svg" xmlns:xlink="http://www.w3.org/1999/xlink"><linearGradient id="a" gradientUnits="userSpaceOnUse" x1="11.46" x2="21.99" y1="20.64" y2="28.44"><stop offset="0" stop-color="#f95cb8"/><stop offset=".02" stop-color="#eb59bb"/><stop offset=".09" stop-color="#cb51c4"/><stop offset=".16" stop-color="#af4acb"/><stop offset=".25" stop-color="#9844d0"/><stop offset=".34" stop-color="#8640d5"/><stop offset=".46" stop-color="#7a3dd8"/><stop offset=".61" stop-color="#733bda"/><stop offset="1" stop-color="#713bda"/></linearGradient><linearGradient id="b" gradientUnits="userSpaceOnUse" x1="13.49" x2="19.29" y1="17.65" y2="22.62"><stop offset="0" stop-color="#f95cb8"/><stop offset=".03" stop-color="#e758bc"/><stop offset=".09" stop-color="#c850c4"/><stop offset=".15" stop-color="#ac49cb"/><stop offset=".23" stop-color="#9644d1"/><stop offset=".32" stop-color="#8540d5"/><stop offset=".42" stop-color="#7a3dd8"/><stop offset=".58" stop-color="#733bda"/><stop offset="1" stop-color="#713bda"/></linearGradient><linearGradient id="c" gradientUnits="userSpaceOnUse" x1="-1.44" x2="21.37" y1="-4.09" y2="14.06"><stop offset="0" stop-color="#f95cb8"/><stop offset=".01" stop-color="#f85cb8"/><stop offset=".35" stop-color="#be4ec7"/><stop offset=".64" stop-color="#9444d1"/><stop offset=".86" stop-color="#7b3dd8"/><stop offset="1" stop-color="#713bda"/></linearGradient><linearGradient id="d" x1="3.48" x2="6.76" xlink:href="#a" y1="5.4" y2="5.4"/><linearGradient id="e" x1="7.57" x2="12.42" xlink:href="#a" y1="5.36" y2="5.36"/><linearGradient id="f" x1="13.27" x2="17.3" xlink:href="#a" y1="5.35" y2="5.35"/><linearGradient id="g" x1="18.11" x2="27.33" xlink:href="#a" y1="3.86" y2="3.86"/><linearGradient id="h" x1="18.11" x2="27.33" xlink:href="#a" y1="6.85" y2="6.85"/><linearGradient id="i" x1="3.53" x2="16.7" xlink:href="#a" y1="10.22" y2="10.22"/><linearGradient id="j" x1="3.53" x2="16.5" xlink:href="#a" y1="12.72" y2="12.72"/><linearGradient id="k" x1="3.53" x2="16.7" xlink:href="#a" y1="15.22" y2="15.22"/><linearGradient id="l" gradientTransform="matrix(1 .07 -.07 1 8.59 -13.51)" x1="11.42" x2="23.26" xlink:href="#a" y1="30.07" y2="30.07"/><rect fill="url(#a)" height="3.14" rx=".8" width="13.6" x="8.89" y="22.21"/><path d="m11.87 17.66h7.65v3.75h-7.65z" fill="url(#b)"/><circle cx="15.69" cy="19.67" fill="#fff" r=".81"/><rect fill="url(#c)" height="19.1" rx="2.26" width="31.38"/><rect fill="#fff" height="16.45" rx="1.55" width="28.12" x="1.54" y="1.31"/><path d="m4.25 7.52a1.32 1.32 0 0 1 -.56-.31.54.54 0 0 1 -.2-.31s0-.07 0-.09a.5.5 0 0 1 .51-.48.54.54 0 0 1 .34.13 1 1 0 0 0 .56.18.67.67 0 0 0 .49-.14.68.68 0 0 0 .12-.5v-2.2a.61.61 0 0 1 .62-.62.61.61 0 0 1 .45.18.6.6 0 0 1 .18.44v2.29a1.43 1.43 0 0 1 -.47 1.14 2 2 0 0 1 -1.29.4 2.48 2.48 0 0 1 -.75-.11z" fill="url(#d)"/><path d="m8.18 7.07a2.22 2.22 0 0 1 -.61-1.71 2.22 2.22 0 0 1 .61-1.71 2.57 2.57 0 0 1 1.82-.57 2.6 2.6 0 0 1 1.82.57 2.26 2.26 0 0 1 .61 1.71 2.26 2.26 0 0 1 -.61 1.71 2.6 2.6 0 0 1 -1.82.57 2.57 2.57 0 0 1 -1.82-.57zm2.67-.57a1.84 1.84 0 0 0 .26-1.14 1.84 1.84 0 0 0 -.26-1.14 1 1 0 0 0 -.85-.34 1.29 1.29 0 0 0 -.65.12.82.82 0 0 0 -.35.49 2.52 2.52 0 0 0 -.12.87 1.91 1.91 0 0 0 .26 1.14 1 1 0 0 0 .85.33 1 1 0 0 0 .86-.33z" fill="url(#e)"/><path d="m13.72 7.5a.55.55 0 0 1 -.24-.12.48.48 0 0 1 -.16-.26 1.72 1.72 0 0 1 -.05-.44v-2.94a.48.48 0 0 1 .22-.43 1.09 1.09 0 0 1 .57-.13h1.68.31.28a.94.94 0 0 1 .26.1l.21.13a.54.54 0 0 1 .17.2 1.17 1.17 0 0 1 .11.25 1.66 1.66 0 0 1 0 .33.93.93 0 0 1 -.26.63 1.14 1.14 0 0 1 -.67.34 1.48 1.48 0 0 1 .81.36.92.92 0 0 1 .3.69 1 1 0 0 1 -.11.45 1.36 1.36 0 0 1 -.3.39 1.7 1.7 0 0 1 -.54.27 2.66 2.66 0 0 1 -.77.1h-1.48zm1.18-2.45a2.63 2.63 0 0 0 .43 0 1.68 1.68 0 0 0 .32-.09.49.49 0 0 0 .22-.18.58.58 0 0 0 .07-.3.56.56 0 0 0 -.07-.3.46.46 0 0 0 -.21-.18 1.58 1.58 0 0 0 -.31-.09h-.37-.51v1.14zm.1 1.79h.48a1.22 1.22 0 0 0 .34-.1.41.41 0 0 0 .21-.2.67.67 0 0 0 .07-.33.5.5 0 0 0 -.29-.48 2.1 2.1 0 0 0 -.85-.13h-.46v1.24z" fill="url(#f)"/><rect fill="url(#g)" height="1.35" rx=".68" width="9.22" x="18.11" y="3.18"/><rect fill="url(#h)" height="1.35" rx=".68" width="9.22" x="18.11" y="6.17"/><rect fill="url(#i)" height="1.35" rx=".68" width="13.16" x="3.53" y="9.54"/><rect fill="url(#j)" height="1.35" rx=".68" width="12.97" x="3.53" y="12.04"/><rect fill="url(#k)" height="1.35" rx=".68" width="13.16" x="3.53" y="14.54"/><path d="m29 23.62-1.77-2.86a1 1 0 0 0 -.22-.24 5.49 5.49 0 1 0 -1.42.91 1 1 0 0 0 .11.28l1.78 2.86a.88.88 0 0 0 .52.43.94.94 0 0 0 .71-.1.9.9 0 0 0 .29-1.28zm-6.82-2.93a4.46 4.46 0 1 1 5.49-3.11 4.46 4.46 0 0 1 -5.54 3.11z" fill="#fff" stroke="#fff" stroke-miterlimit="10" stroke-width="2"/><path d="m29 23.62-1.77-2.86a1 1 0 0 0 -.22-.24 5.49 5.49 0 1 0 -1.42.91 1 1 0 0 0 .11.28l1.78 2.86a.88.88 0 0 0 .52.43.94.94 0 0 0 .71-.1.9.9 0 0 0 .29-1.28zm-6.82-2.93a4.46 4.46 0 1 1 5.49-3.11 4.46 4.46 0 0 1 -5.54 3.11z" fill="url(#l)"/></svg>