<svg viewBox="0 0 31.68 20.68" xmlns="http://www.w3.org/2000/svg" xmlns:xlink="http://www.w3.org/1999/xlink"><linearGradient id="a" gradientUnits="userSpaceOnUse" x1="12.99" x2="21.3" y1="7.8" y2="25.95"><stop offset="0" stop-color="#f95cb8"/><stop offset=".01" stop-color="#f85cb8"/><stop offset=".35" stop-color="#be4ec7"/><stop offset=".64" stop-color="#9444d1"/><stop offset=".86" stop-color="#7b3dd8"/><stop offset="1" stop-color="#713bda"/></linearGradient><linearGradient id="b" gradientUnits="userSpaceOnUse" x1="12.55" x2="23.13" y1="-4.1" y2="26.96"><stop offset="0" stop-color="#f95cb8"/><stop offset=".25" stop-color="#cf52c2"/><stop offset=".6" stop-color="#9d46cf"/><stop offset=".86" stop-color="#7d3ed7"/><stop offset="1" stop-color="#713bda"/></linearGradient><linearGradient id="c" gradientUnits="userSpaceOnUse" x1="29.48" x2="31.2" y1="11.91" y2="11.91"><stop offset=".01" stop-color="#f8782e"/><stop offset="1" stop-color="#e34528"/></linearGradient><path d="m30.77 11.61v-5.67l-.86.29v5.38z" fill="#fccf00"/><path d="m25.57 9.31-9.7 3.29a1 1 0 0 1 -.56 0l-9.7-3.29v8.13.11c0 1 4.48 3.13 10 3.13s10-2.16 10-3.13v-.11z" fill="url(#a)"/><path d="m31.57 5.38-15.94-5.38h-.1l-15.26 5.15a.39.39 0 0 0 0 .74l4.84 1.64 10.42 3.54h.1l15.95-5.41a.15.15 0 0 0 -.01-.28z" fill="url(#b)"/><path d="m29.32 12.93v3.31a1 1 0 1 0 2 0v-3.31a1 1 0 0 0 -.29-.71h-1.42a1 1 0 0 0 -.29.71z" fill="#fccf00"/><path d="m29.48 11.61v.61h.13 1.46.13v-.61h-.43-.86z" fill="url(#c)"/></svg>