<svg viewBox="0 0 30.69 26.24" xmlns="http://www.w3.org/2000/svg" xmlns:xlink="http://www.w3.org/1999/xlink"><linearGradient id="a" gradientUnits="userSpaceOnUse" x1="15.54" x2="15.15" y1="26.47" y2="9.03"><stop offset="0" stop-color="#25b4fe"/><stop offset=".03" stop-color="#24aaf8"/><stop offset=".09" stop-color="#2198ee"/><stop offset=".16" stop-color="#1f8de8"/><stop offset=".24" stop-color="#1f8ae6"/><stop offset=".62" stop-color="#1766d1"/></linearGradient><linearGradient id="b" gradientUnits="userSpaceOnUse" x2="30.69" y1="7.33" y2="7.33"><stop offset="0" stop-color="#69d4cf"/><stop offset="0" stop-color="#68d3cf"/><stop offset=".08" stop-color="#56c9d4"/><stop offset=".15" stop-color="#4bc2d7"/><stop offset=".24" stop-color="#48c0d8"/><stop offset=".62" stop-color="#11a2e8"/></linearGradient><path d="m26.88 10.89v13.71a1.63 1.63 0 0 1 -1.63 1.64h-5.1a1.63 1.63 0 0 1 -1.64-1.64v-8.86h-6.34v8.86a1.63 1.63 0 0 1 -1.63 1.64h-5.1a1.63 1.63 0 0 1 -1.63-1.64v-13.71a1.63 1.63 0 0 1 1.63-1.64h5.1a1.5 1.5 0 0 1 1 .32h7.68a1.55 1.55 0 0 1 1-.32h5.1a1.63 1.63 0 0 1 1.56 1.64z" fill="url(#a)"/><path d="m30.69 11.5a.57.57 0 0 1 0 .13 1.25 1.25 0 0 1 -.14.51 1.52 1.52 0 0 1 -.31.48 2.23 2.23 0 0 1 -2.27 2 2.27 2.27 0 0 1 -2.13-1.41h-2.08a2.31 2.31 0 0 1 -4.26 0h-1.5a2.31 2.31 0 0 1 -4.26 0h-1.5a2.31 2.31 0 0 1 -4.26 0h-1.67a2.29 2.29 0 0 1 -2.14 1.41 2.26 2.26 0 0 1 -2.17-1.38h-.41a1.55 1.55 0 0 1 -1.51-1.1 1.08 1.08 0 0 1 -.08-.51.57.57 0 0 1 0-.13 1 1 0 0 1 .09-.33l.07-.17.18-.46.07-.18.18-.44.17-.42.09-.23.15-.42 3-7.64a2 2 0 0 1 1.89-1.21h18.2a1.92 1.92 0 0 1 1.75 1.06l3.78 7.79.19.4.12.23.2.42.21.43.09.18.07.15a2 2 0 0 1 .12.31 1.62 1.62 0 0 1 0 .19 1.41 1.41 0 0 1 .07.34z" fill="url(#b)"/><path d="m30.14 9.9h-29.54l.17-.42.09-.23h28.95l.12.23z" fill="#1766d1"/><path d="m30.64 11h-30.48l.18-.46.07-.18h30l.09.18.07.15a2 2 0 0 1 .07.31z" fill="#2594e2"/><path d="m30.69 11.5a.57.57 0 0 1 0 .13 1.25 1.25 0 0 1 -.14.51h-30.47a1.08 1.08 0 0 1 -.08-.51.57.57 0 0 1 0-.13z" fill="#2fa8d6"/></svg>