<svg viewBox="0 0 30.55 30.55" xmlns="http://www.w3.org/2000/svg" xmlns:xlink="http://www.w3.org/1999/xlink"><linearGradient id="a" gradientUnits="userSpaceOnUse" x1="5.11" x2="22.57" y1=".68" y2="25.75"><stop offset="0" stop-color="#f95cb8"/><stop offset=".01" stop-color="#f85cb8"/><stop offset=".35" stop-color="#be4ec7"/><stop offset=".64" stop-color="#9444d1"/><stop offset=".86" stop-color="#7b3dd8"/><stop offset="1" stop-color="#713bda"/></linearGradient><circle cx="15.27" cy="15.27" fill="url(#a)" r="15.27"/><path d="m20.42 6-9.17 1.86a.15.15 0 0 0 -.12.15v11.56a3.09 3.09 0 0 0 -2.66.23c-1.34.7-2.06 2-1.6 2.86s1.92 1 3.26.33a3.1 3.1 0 0 0 1.87-2.39v-10.22a.12.12 0 0 1 .11-.13l8.17-1.66a.13.13 0 0 1 .16.13v8.53a3 3 0 0 0 -2.66.22c-1.34.7-2.05 2-1.59 2.86s1.91 1 3.25.34a2.8 2.8 0 0 0 1.73-2.39v-12.28a.15.15 0 0 0 -.17-.12z" fill="#fff"/></svg>