<svg xmlns="http://www.w3.org/2000/svg" xmlns:xlink="http://www.w3.org/1999/xlink" viewBox="0 0 29.1 28.12"><defs><style>.cls-1{fill:#021c41;}.cls-2{fill:#556b94;}.cls-3{fill:url(#linear-gradient);}</style><linearGradient id="linear-gradient" x1="351.94" y1="-306.31" x2="354.27" y2="-301.83" gradientTransform="matrix(0.77, -0.64, 0.64, 0.77, -64.03, 483.04)" gradientUnits="userSpaceOnUse"><stop offset="0" stop-color="#fccf3d"/><stop offset="0.72" stop-color="#f4b01f"/></linearGradient></defs><g id="Layer_2" data-name="Layer 2"><g id="Layer_1-2" data-name="Layer 1"><rect class="cls-1" x="1.42" y="4.91" width="26.26" height="18.3" rx="3.4" transform="translate(-5.63 12.64) rotate(-40)"/><rect class="cls-2" x="-0.88" y="9.16" width="26.26" height="4.33" transform="translate(-4.41 10.52) rotate(-40)"/><path class="cls-3" d="M9.48,21.24a2.52,2.52,0,1,0,3.55.31A2.51,2.51,0,0,0,9.48,21.24Zm2.94,2.32a2.07,2.07,0,0,1-.15.34l.36.43-.21.17-.32-.38a2.43,2.43,0,0,1-.25.2l.33.38-.21.18-.36-.43a1.41,1.41,0,0,1-.93,0,1.37,1.37,0,0,1-.9-1.66,1.51,1.51,0,0,1,.15-.37L9.57,22l.21-.17.32.38a1.57,1.57,0,0,1,.25-.2L10,21.64l.21-.17.36.43a1.51,1.51,0,0,1,.76-.08.45.45,0,0,1,.34.45l-.21.7-.09.31,0,.09a.14.14,0,0,1-.21.08.4.4,0,0,1-.12-.1.08.08,0,0,0,0,0L11,23.22a.62.62,0,0,1,0-.47v0l.09-.29a.92.92,0,0,0-.25.08.72.72,0,0,0-.25.21,1,1,0,0,0-.13.25h0a.76.76,0,0,0,.55.94,1.06,1.06,0,0,0,.25,0,.66.66,0,0,0,.28-.09.82.82,0,0,0,.25-.2.94.94,0,0,0,.12-.22v0a.85.85,0,0,0,0-.45.06.06,0,0,1,0-.06l0-.16.05-.13a.68.68,0,0,1,.14-.25.09.09,0,0,1,.14,0A1.36,1.36,0,0,1,12.42,23.56Z"/></g></g></svg>