<svg viewBox="0 0 240.25 241.01" xmlns="http://www.w3.org/2000/svg"><path d="m64.62 222.4c-9.38-.43-16.61-7.8-16.14-16.47l9.44-177.39c.25-4.75 2.76-8.89 6.52-11.6l-31.73 2.28c-9.36.67-16.38 8.41-15.66 17.28l13.88 173.22c.71 8.87 8.88 15.51 18.24 14.84l24.38-1.75-8.9-.4z" fill="#40b35c"/><rect fill="#40b35c" height="205" rx="17" transform="matrix(.99878902 .04919842 -.04919842 .99878902 6.15 -6.64)" width="159" x="58.73" y="19.23"/><rect fill="#fff" height="191" rx="11.39" transform="matrix(.99878902 .04919842 -.04919842 .99878902 6.14 -6.6)" width="146.43" x="64.16" y="26.19"/><g fill="#40b35c"><path d="m207.37 209.34 4.76-96.85-15.1-14.07c-5.81-5.41-14.91-5.09-20.33.72l-62.08 66.64c-5.41 5.81-5.09 14.91.72 20.33l34.12 31.79 45.96 2.26c6.29.31 11.63-4.54 11.94-10.82z"/><path d="m174.04 174.95-66.49-55.08c-7.12-5.9-17.68-4.91-23.58 2.21l-22.23 26.84-2.61 53.13c-.31 6.29 4.54 11.63 10.82 11.94l89.85 4.42 16.47-19.88c5.9-7.12 4.91-17.68-2.21-23.58z"/><ellipse cx="108.84" cy="63.64" rx="17.82" ry="17.22" transform="matrix(.08489523 -.99638988 .99638988 .08489523 36.19 166.69)"/></g></svg>