<?xml version="1.0" encoding="UTF-8"?><svg id="a" xmlns="http://www.w3.org/2000/svg" viewBox="0 0 240.25 241.01"><defs><style>.b{fill:#fff;}.c{fill:#40b35c;}</style></defs><path class="c" d="M64.62,222.4c-9.38-.43-16.61-7.8-16.14-16.47L57.92,28.54c.25-4.75,2.76-8.89,6.52-11.6l-31.73,2.28c-9.36,.67-16.38,8.41-15.66,17.28l13.88,173.22c.71,8.87,8.88,15.51,18.24,14.84l24.38-1.75-8.9-.4Z"/><g><rect class="c" x="58.73" y="19.23" width="159" height="205" rx="17" ry="17" transform="translate(6.15 -6.64) rotate(2.82)"/><rect class="b" x="64.16" y="26.19" width="146.43" height="191" rx="11.39" ry="11.39" transform="translate(6.14 -6.6) rotate(2.82)"/><path class="c" d="M207.37,209.34l4.76-96.85-15.1-14.07c-5.81-5.41-14.91-5.09-20.33,.72l-62.08,66.64c-5.41,5.81-5.09,14.91,.72,20.33l34.12,31.79,45.96,2.26c6.29,.31,11.63-4.54,11.94-10.82Z"/><path class="c" d="M174.04,174.95l-66.49-55.08c-7.12-5.9-17.68-4.91-23.58,2.21l-22.23,26.84-2.61,53.13c-.31,6.29,4.54,11.63,10.82,11.94l89.85,4.42,16.47-19.88c5.9-7.12,4.91-17.68-2.21-23.58Z"/><ellipse class="c" cx="108.84" cy="63.64" rx="17.82" ry="17.22" transform="translate(36.19 166.69) rotate(-85.13)"/></g></svg>