<svg viewBox="0 0 500 500" xmlns="http://www.w3.org/2000/svg"><path d="m163.57 218.9c-1-.27-24.24-7.17-62.43-39.67-39.47-33.59-40.73-89.06-40.77-91.41a7.17 7.17 0 0 1 7.09-7.27l67.72-.8.17 14.34-60.07.71c1.7 15.14 8.47 50.8 35.15 73.5 35.45 30.17 56.91 36.76 57.12 36.82z" fill="#fcab28"/><path d="m336.43 218.9-3.94-13.78c.17-.06 21.63-6.65 57.08-36.82 26.67-22.7 33.43-58.3 35.15-73.5l-60.07-.71.17-14.34 67.72.8a7.17 7.17 0 0 1 7.09 7.27c0 2.35-1.3 57.82-40.77 91.41-38.19 32.5-61.46 39.4-62.43 39.67z" fill="#fcab28"/><path d="m132.08 80.54s-8.76-3.18-8.76-12-1.6-12.74 6.37-20.71 68.31-18.83 116.86-18.83 115 13.28 123 20.45 4.74 26.31 3.15 29.55-8 2.39-8 2.39z" fill="#ffcf3f"/><path d="m246 55.85c-30 0-93.22 4-116.33 20.71 0 0 0 86.05 23.9 129.87s66.13 79.68 66.13 79.68h57.37s42.23-35.86 66.13-79.68 23.9-129.87 23.9-129.87c-25.47-16.73-91.1-20.71-121.1-20.71z" fill="#ffd733"/><path d="m246 55.85c-30 0-93.22 4-116.33 20.71 0 0 0 86.05 23.9 129.87 11.33 20.76 26.76 39.73 39.87 53.95a85.63 85.63 0 0 0 31.86 6.62c73.3 1.59 92.42-60.56 100.39-82.87 12.56-35.15 19.7-90.34 22.5-115.95-30.8-9.75-78.02-12.33-102.19-12.33z" fill="#ffe266"/><path d="m330.47 393.67c-7.17-21.51-22.31-18.33-22.31-18.33s0-6.91-10.62-7.9c-6.56-2-23.48-8.52-29.21-23.17-7.18-18.32-4-41.43-4-41.43l-15.93-2.08-15.94 2.08s3.19 23.11-4 41.43c-5.73 14.65-22.65 21.15-29.22 23.17-10.59 1-10.62 7.9-10.62 7.9s-15.14-3.18-22.31 18.33z" fill="#ffce45"/><g fill="#fcab28"><path d="m188.65 375.34q14.94-1 29.88-1.29c10-.26 19.92-.33 29.88-.37s19.92.1 29.87.37 19.92.65 29.88 1.29q-14.94 1-29.88 1.3c-9.95.27-19.91.34-29.87.37s-19.92-.11-29.88-.37-19.92-.64-29.88-1.3z"/><path d="m277.09 297.26h-56.57a6.38 6.38 0 0 1 0-12.75h56.57a6.38 6.38 0 0 1 0 12.75z"/><path d="m273.9 305.31h-50.19a5.66 5.66 0 1 1 0-11.31h50.19a5.66 5.66 0 1 1 0 11.31z"/></g><rect fill="#6c554f" height="94.81" rx="10.66" width="195.21" x="153.59" y="392.87"/><rect fill="#fcab28" height="50.04" rx="4.94" width="125.09" x="188.65" y="409.29"/><path d="m209.47 409.29h39.63c.94 0 1.7 2.21 1.7 4.94v40.15c0 2.73-.76 4.94-1.7 4.94h-39.63c-.94 0-1.7-2.21-1.7-4.94v-40.15c0-2.73.76-4.94 1.7-4.94z" fill="#ffd733"/><path d="m219.72 286.11c4.78-.34 9.56-.51 14.34-.64s9.57-.17 14.35-.19 9.56 0 14.34.19l7.17.23c2.39.14 4.78.22 7.17.41-2.39.19-4.78.27-7.17.41l-7.17.23c-4.78.15-9.56.17-14.34.19s-9.56 0-14.35-.2-9.56-.29-14.34-.63z" fill="#ffe266"/><path d="m220 295.67c4.87-.34 9.74-.5 14.61-.64s9.73-.17 14.6-.19 9.74 0 14.61.19l7.3.23c2.44.14 4.87.22 7.31.41-2.44.19-4.87.27-7.31.41l-7.3.23c-4.87.15-9.74.17-14.61.19s-9.73 0-14.6-.19-9.75-.31-14.61-.64z" fill="#ffe266"/><path d="m233 306.29a127.74 127.74 0 0 1 15.38-.83 124 124 0 0 1 15.38.83 142.91 142.91 0 0 1 -30.76 0z" fill="#ffe266"/><path d="m169.79 386q19.67-1 39.31-1.29c13.1-.27 26.2-.34 39.31-.37s26.2.1 39.3.36 26.21.65 39.31 1.3q-19.65 1-39.31 1.3c-13.1.26-26.2.33-39.3.36s-26.21-.1-39.31-.37-26.2-.68-39.31-1.29z" fill="#fcab28"/><path d="m205.75 31.15c-13.38 1.3-26.36 3.11-37.73 5.16-1.32 39.35-1.74 105.09 7.88 141.44 14.34 54.18 39.84 81.25 39.84 81.25s-15.94-79.66-14.34-149.77c.76-33.58 2.6-59.82 4.35-78.08z" fill="#fffffd" opacity=".48"/><path d="m367.12 76.56c-8.82-5-18.61-7.94-28.43-10.19a292.49 292.49 0 0 0 -29.88-5.05c-10-1.18-20.11-2.11-30.2-2.71s-20.21-1-30.31-1.08-20.2.24-30.3.81-20.17 1.42-30.21 2.58a284.19 284.19 0 0 0 -29.87 5c-9.81 2.28-19.6 5.22-28.23 10.62a60.15 60.15 0 0 1 13.36-7.3c1.18-.47 2.35-1 3.54-1.43l3.62-1.23c2.4-.87 4.85-1.56 7.31-2.24a248.12 248.12 0 0 1 29.93-6 428.76 428.76 0 0 1 60.87-4.15 465.5 465.5 0 0 1 60.84 4.55 256.5 256.5 0 0 1 29.92 6c2.47.62 4.89 1.43 7.32 2.21s4.81 1.66 7.18 2.59a72.31 72.31 0 0 1 7 3.1 27 27 0 0 1 3.32 1.86z" fill="#fcab28"/><path d="m196.42 93.98 7.45-13.04 6.96 13.3 13.04 7.44-13.3 6.97-7.44 13.04-6.97-13.3-13.03-7.44z" fill="#fff"/><path d="m172.52 487.69h29.53l73.74-94.82h-33.93z" fill="#fff" opacity=".35"/><path d="m245.42 487.69 73.14-94.82h-13.87l-73.9 94.82z" fill="#fff" opacity=".35"/></svg>